<?xml version="1.0" encoding="utf-8"?>
<!-- Generator: Adobe Illustrator 18.0.0, SVG Export Plug-In . SVG Version: 6.00 Build 0)  -->
<!DOCTYPE svg PUBLIC "-//W3C//DTD SVG 1.1//EN" "http://www.w3.org/Graphics/SVG/1.1/DTD/svg11.dtd">
<svg version="1.1" xmlns="http://www.w3.org/2000/svg" xmlns:xlink="http://www.w3.org/1999/xlink" x="0px" y="0px"
	 viewBox="0 0 556 547.8" enable-background="new 0 0 556 547.8" xml:space="preserve">
<g id="Layer_1">
	<g>
		<path fill="#231F20" d="M135.4,78.9h34.5c11.1,0,16.6,4.8,16.6,14.4v14.6c0,6.5-2,10.5-5.9,12.2c3.9,1.5,5.9,5.2,5.9,11.2v16.2
			c0,9.7-5.5,14.5-16.6,14.5h-34.5V78.9z M168.1,110.5V95c0-2.2-1.2-3.3-3.5-3.3h-10.7v22.1h10.7
			C166.9,113.8,168.1,112.7,168.1,110.5z M168.1,146v-16.2c0-1.1-0.3-1.9-0.8-2.4c-0.5-0.5-1.4-0.7-2.7-0.7h-10.7v22.6h10.7
			C166.9,149.2,168.1,148.2,168.1,146z"/>
		<path fill="#231F20" d="M213.6,148.3h23.9v13.7H195V78.9h18.6V148.3z"/>
		<path fill="#231F20" d="M259.6,78.9h17.5c11,0,16.5,4.8,16.5,14.4v54.3c0,9.7-5.5,14.5-16.5,14.5h-17.5
			c-11.1,0-16.6-4.8-16.6-14.5V93.3C243,83.7,248.6,78.9,259.6,78.9z M274.9,145.1V95.9c0-2.2-1.1-3.3-3.4-3.3h-6.3
			c-2.4,0-3.5,1.1-3.5,3.3v49.2c0,2.2,1.2,3.3,3.5,3.3h6.3C273.8,148.3,274.9,147.2,274.9,145.1z"/>
		<path fill="#231F20" d="M351.4,108h-18.8V95c0-2.2-1.1-3.3-3.4-3.3h-5.4c-2.4,0-3.5,1.1-3.5,3.3v51c0,1.2,0.3,2.1,0.8,2.6
			c0.5,0.5,1.4,0.7,2.7,0.7h5.4c1.2,0,2.1-0.2,2.6-0.7c0.5-0.5,0.8-1.3,0.8-2.6v-12.7h18.8v14.4c0,9.6-5.5,14.4-16.6,14.4h-16.7
			c-11,0-16.5-4.8-16.5-14.4V93.3c0-9.6,5.5-14.4,16.5-14.4h16.7c11.1,0,16.6,4.8,16.6,14.4V108z"/>
		<path fill="#231F20" d="M358.5,162.1V78.9h18.6v83.2H358.5z M413.7,78.9L396.9,120l16.7,42.1h-20.1L377.5,120l16.1-41.1H413.7z"/>
	</g>
	<g>
		<path fill="#231F20" d="M265.9,181.3v31.4l-63.8,180.9H143L204.8,226h-71.9v-44.6H265.9z"/>
		<path fill="#231F20" d="M419.2,222.3v130.3c0,27.3-16,41-48.1,41h-43.5c-32,0-48.1-13.7-48.1-41V222.3c0-27.3,16-41,48.1-41h43.5
			C403.2,181.3,419.2,195,419.2,222.3z M362,345V230c0-4.8-2.7-7.3-8.2-7.3H345c-5.5,0-8.2,2.4-8.2,7.3V345c0,4.9,2.7,7.3,8.2,7.3
			h8.8C359.3,352.3,362,349.9,362,345z"/>
	</g>
	<g>
		<path fill="#231F20" d="M132.5,468.1v-9.5c0-0.7-0.1-1.2-0.3-1.4c-0.2-0.2-0.7-0.3-1.4-0.3H127c-2.9,0-4.4-1.5-4.4-4.4v-9.7
			c0-2.9,1.5-4.4,4.4-4.4h4.9c2.9,0,4.4,1.5,4.4,4.4v5.4h-3.9v-4.7c0-0.7-0.1-1.2-0.3-1.4c-0.2-0.2-0.7-0.3-1.4-0.3h-2.6
			c-0.7,0-1.2,0.1-1.4,0.3c-0.2,0.2-0.3,0.7-0.3,1.4v8.4c0,0.7,0.1,1.2,0.3,1.4c0.2,0.2,0.7,0.3,1.4,0.3h3.8c2.9,0,4.4,1.5,4.4,4.4
			v10.7c0,2.9-1.5,4.4-4.4,4.4h-4.9c-2.9,0-4.4-1.5-4.4-4.4v-5.4h3.9v4.7c0,0.7,0.1,1.2,0.3,1.4c0.2,0.2,0.7,0.3,1.4,0.3h2.5
			c0.7,0,1.2-0.1,1.4-0.3C132.4,469.3,132.5,468.9,132.5,468.1z"/>
		<path fill="#231F20" d="M184,438.4v3.3h-5.6v31.4h-3.8v-31.4H169v-3.3H184z"/>
		<path fill="#231F20" d="M228,438.4h3.8v30.3c0,2.9-1.5,4.4-4.4,4.4h-5.7c-2.9,0-4.4-1.5-4.4-4.4v-30.3h3.8v29.7
			c0,0.7,0.1,1.2,0.3,1.4c0.2,0.2,0.7,0.3,1.4,0.3h3.5c0.7,0,1.2-0.1,1.4-0.3c0.2-0.2,0.3-0.7,0.3-1.4V438.4z"/>
		<path fill="#231F20" d="M267.9,438.4h11c2.9,0,4.4,1.5,4.4,4.4v25.9c0,2.9-1.5,4.4-4.4,4.4h-11V438.4z M279.5,468.1v-24.7
			c0-0.7-0.1-1.2-0.3-1.4c-0.2-0.2-0.7-0.3-1.4-0.3h-6v28.1h6c0.7,0,1.2-0.1,1.4-0.3C279.4,469.3,279.5,468.9,279.5,468.1z"/>
		<path fill="#231F20" d="M319.9,438.4h3.8v34.7h-3.8V438.4z"/>
		<path fill="#231F20" d="M364.7,438.4h5.7c2.9,0,4.4,1.5,4.4,4.4v25.9c0,2.9-1.5,4.4-4.4,4.4h-5.7c-2.9,0-4.4-1.5-4.4-4.4v-25.9
			C360.3,439.9,361.7,438.4,364.7,438.4z M371,468.1v-24.7c0-0.7-0.1-1.2-0.3-1.4c-0.2-0.2-0.7-0.3-1.4-0.3h-3.5
			c-0.7,0-1.2,0.1-1.4,0.3c-0.2,0.2-0.3,0.7-0.3,1.4v24.7c0,0.7,0.1,1.2,0.3,1.4c0.2,0.2,0.7,0.3,1.4,0.3h3.5c0.7,0,1.2-0.1,1.4-0.3
			C370.9,469.3,371,468.9,371,468.1z"/>
		<path fill="#231F20" d="M419.9,468.1v-9.5c0-0.7-0.1-1.2-0.3-1.4c-0.2-0.2-0.7-0.3-1.4-0.3h-3.8c-2.9,0-4.4-1.5-4.4-4.4v-9.7
			c0-2.9,1.5-4.4,4.4-4.4h4.9c2.9,0,4.4,1.5,4.4,4.4v5.4h-3.9v-4.7c0-0.7-0.1-1.2-0.3-1.4c-0.2-0.2-0.7-0.3-1.4-0.3h-2.6
			c-0.7,0-1.2,0.1-1.4,0.3c-0.2,0.2-0.3,0.7-0.3,1.4v8.4c0,0.7,0.1,1.2,0.3,1.4c0.2,0.2,0.7,0.3,1.4,0.3h3.8c2.9,0,4.4,1.5,4.4,4.4
			v10.7c0,2.9-1.5,4.4-4.4,4.4h-4.9c-2.9,0-4.4-1.5-4.4-4.4v-5.4h3.9v4.7c0,0.7,0.1,1.2,0.3,1.4c0.2,0.2,0.7,0.3,1.4,0.3h2.5
			c0.7,0,1.2-0.1,1.4-0.3C419.8,469.3,419.9,468.9,419.9,468.1z"/>
	</g>
	<rect x="111.4" y="58.4" fill="none" stroke="#231F20" stroke-miterlimit="10" width="328.5" height="359.1"/>
</g>
<g id="Layer_2">
</g>
<g id="Layer_3">
</g>
</svg>
